<?xml version="1.0" encoding="utf-8"?>
<!DOCTYPE svg PUBLIC "-//W3C//DTD SVG 1.1//EN" "http://www.w3.org/Graphics/SVG/1.1/DTD/svg11.dtd">
<svg version="1.1" id="Layer_1" xmlns="http://www.w3.org/2000/svg" xmlns:xlink="http://www.w3.org/1999/xlink" x="0px" y="0px"
	 viewBox="0 0 200 240" xml:space="preserve">
<g>
	<path d="M108.555,100.273c5.962,61.568-6.446,127.897-101.375,127.897h1.123c111.128,30.31,230.577,10.523,166.584-156.385
		l0.471,1.083c-4.827-11.718-26.18-18.372-44.535-10.808c-17.808,7.339-25.837,27.463-22.051,39.048L108.555,100.273z"/>
	<path d="M141.836,32.229c-0.542-0.073-1.081-0.113-1.621-0.138c0.688-8.221,0.72-15.384-5.264-21.913
		c-7.816-8.528-19.456-10.617-29.01-10.106c-3.67,0.194-4.82,0.963-8.007,2.795C93,5.707,93.295,4.522,91.679,10.874
		c-1.482,5.822,0.077,11.486,3.014,11.364l2.388-9.128c3.179-7.487,24.95,4.727,32.385,21.612
		c-8.342,4.604-14.942,14.778-16.617,27.263c-0.302,2.243-0.426,4.453-0.394,6.613c4.922-7.501,11.553-13.867,19.511-16.981
		c10.664-4.172,21.43-2.557,29.471,2.395C158.976,42.364,151.601,33.54,141.836,32.229z"/>
</g>
</svg>
