<?xml version="1.0" encoding="utf-8"?>
<!DOCTYPE svg PUBLIC "-//W3C//DTD SVG 1.1//EN" "http://www.w3.org/Graphics/SVG/1.1/DTD/svg11.dtd">
<svg version="1.1" id="Layer_1" xmlns="http://www.w3.org/2000/svg" xmlns:xlink="http://www.w3.org/1999/xlink" x="0px" y="0px"
	 viewBox="0 0 240 60" xml:space="preserve">
<rect fill="#cf3401" width="240" height="60"/>
<g>
	<path fill="#FFFFFF" d="M14.517,32.351c-0.506-1.561-1.317-3.989-2.023-5.394c-1.593-3.086-3.515-0.715-4.245-2.79
		c-0.504-1.433,0.944-2.621,2.151-3.045c0.98-0.345,7.905-2.355,11.037-3.456c0.754-0.265,8.206-3.308,8.734-3.494
		c1.471-0.517,4.066,1.92,4.968,4.486c0.451,1.283,0.312,2.815-1.123,3.319c-2.603,0.915-2.611-3.448-9.855-0.902
		c-2.302,0.809-3.349,0.965-1.426,6.436c0.239,0.68,0.502,1.308,2.69,0.538c2.905-1.021-0.164-3.843,2.478-4.771
		c2.15-0.756,3.747,3.304,4.264,4.775c0.624,1.774,2.04,6.405-0.526,7.307c-2.415,0.849-1.423-4.29-5.46-2.871
		c-1.66,0.584-1.328,0.806,0,4.705c1.812,5.638,4.535,1.203,5.543,4.071c0.305,0.869,1.228,2.408-7.94,5.631
		c-6.037,2.122-7.322,1.601-7.893-0.022c-0.743-2.114,1.64-1.848,1.729-4.127c0.006-1.188-0.823-3.908-1.261-5.152L14.517,32.351z"
		/>
	<path fill="#FFFFFF" d="M58.937,30.619c0,7.039,2.399,3.2,2.399,5.359c0,2.279-3.119,4.76-6.039,4.76
		c-3.16,0-3.24-2.039-4.239-2.039c-0.48,0-1,0.52-1.88,1c-0.88,0.52-2.08,1.039-3.919,1.039c-3.319,0-6.639-1.76-6.639-5.719
		c0-2.84,2.719-6.359,9.758-6.359c1.24,0,1.8,0.08,1.8-1.36c0-1.32-0.04-4.079-1.88-4.079c-2.399,0-2.64,4.319-6.199,4.319
		c-1.28,0-2.24-0.92-2.24-2.2c0-3.399,6.759-5.599,10.558-5.599c2.28,0,8.519,0.88,8.519,6.879V30.619z"/>
	<path fill="#FFFFFF" d="M76.458,31.539c0,2.68,1.12,3.32,2.199,3.32c1.24,0,1.96-0.92,2.68-0.92c0.8,0,1.36,1.119,1.36,1.84
		c0,2.639-4.559,4.959-8.599,4.959c-2.04,0-7.159-0.881-7.159-7.238v-8.239c0-0.72,0-1-0.2-1.12c-0.2-0.12-0.64-0.04-1.56-0.04
		c-1.04,0-1.56,0.04-1.76-0.16c-0.28-0.28-0.2-0.68-0.2-1.6c0-0.56-0.12-1,0.36-1.32l9.118-5.799c0.92-0.56,0.88-0.439,2.08-0.439
		c1.6,0,1.68-0.16,1.68,1.68c0,1.24-0.08,2.479,0.12,2.959c0.12,0.32,0.4,0.32,1.44,0.32h2.799c1.72,0,1.72,0.12,1.72,1.919
		c0,2.28-0.28,2.44-1.839,2.44h-2.76c-1.4,0-1.479,0.04-1.479,1.479V31.539z"/>
	<path fill="#FFFFFF" d="M118.656,37.139c-0.84,1.641-1.64,3.479-3.799,3.479c-2.32,0-2.92-1.318-3.8-3.199l-7.958-17.596
		c-1.2-2.6-1.56-3.08-3.12-3.319c-0.8-0.12-1.2-0.72-1.2-1.56c0-3.08,6.359-3.239,8.398-3.239c8.399,0,8.079,2,8.079,2.6
		c0,1.52-1.919,1.6-1.919,2.679c0,0.84,1.56,3.959,2.519,6.039c0.36,0.68,0.801,2.24,1.681,2.28c1.319,0.08,1.999-2.16,2.479-3
		c0.479-0.96,2.319-4.559,2.319-5.519c0-1.44-2.04-1.04-2.04-2.64c0-2.479,5.039-2.439,6.638-2.439c5.041,0,5.881,0.92,5.881,2.319
		c0,1.08-0.801,1.6-1.76,1.72c-1.721,0.2-1.881,0.08-3.4,3.16L118.656,37.139z"/>
	<path fill="#FFFFFF" d="M139.418,30.98c-0.439,0-1.08-0.121-1.08,0.559c0,2,2.6,3.68,4.48,3.68c2.998,0,4.479-1.799,5.318-1.799
		s1.561,1.239,1.561,1.999c0,3.079-5.641,5.319-9.24,5.319c-7.197,0-10.918-5.199-10.918-10.358c0-6.159,5.24-10.638,11.238-10.638
		c6.799,0,9.799,5.239,9.799,8.239c0,2.639-1.199,3-2.48,3H139.418z"/>
	<path fill="#FFFFFF" d="M163.498,48.297c-7.398,0-10.199-2.799-10.199-5.359c0-2.32,2.201-2.359,2.201-2.959
		c0-0.52-2.16-1.641-2.16-3.4c0-2.839,3.238-3.679,3.238-4.238c0-0.48-2.719-2.32-2.719-5.279c0-4.839,6.039-7.079,10.078-7.079
		c2.039,0,4.799,0.76,6.199,0.76c3.039,0,4.559-2.12,5.16-2.12c0.918,0,1.318,1.2,1.318,1.959c0,2.24-2.238,3.839-2.238,4.279
		c0,0.4,0.119,0.84,0.119,1.24c0,5.399-6.279,7.239-10.678,7.239c-0.68,0-1.359-0.121-2.08-0.121c-0.68,0-1.08,0.44-1.08,1.08
		c0,1.24,1.76,1.48,2.68,1.48c1.24,0,5.879-0.68,7.479-0.68c4.16,0,5.92,2.359,5.92,4.758
		C176.736,43.457,173.297,48.297,163.498,48.297z"/>
	<path fill="#FFFFFF" d="M199.496,30.619c0,7.039,2.4,3.2,2.4,5.359c0,2.279-3.121,4.76-6.039,4.76c-3.16,0-3.24-2.039-4.24-2.039
		c-0.48,0-1,0.52-1.879,1c-0.881,0.52-2.08,1.039-3.92,1.039c-3.32,0-6.639-1.76-6.639-5.719c0-2.84,2.719-6.359,9.758-6.359
		c1.24,0,1.801,0.08,1.801-1.36c0-1.32-0.041-4.079-1.881-4.079c-2.398,0-2.639,4.319-6.199,4.319c-1.279,0-2.238-0.92-2.238-2.2
		c0-3.399,6.758-5.599,10.559-5.599c2.279,0,8.518,0.88,8.518,6.879V30.619z"/>
	<path fill="#FFFFFF" d="M215.977,33.5c0,3.879,1.359,3.199,1.359,4.719c0,2.479-5.318,2.398-6.957,2.398
		c-1.602,0-5.68,0-5.68-2.398c0-1.92,1.84-0.2,1.959-4.119l0.16-6c0.08-2.959-2.359-2-2.359-4.119s9.199-4.119,9.998-4.119
		c0.881,0,1.439,0.76,1.439,1.56c0,0.24-0.039,0.48-0.039,0.72c0,0.48,0.199,1.04,0.799,1.04c0.641,0,1-0.84,1.801-1.68
		c0.799-0.8,2-1.64,4.279-1.64c8.277,0,6.879,8.119,7.279,14.197c0.199,3.16,1.838,2.44,1.838,4.16c0,0.719,0.16,2.398-7.357,2.398
		c-1.439,0-5.279,0.08-5.279-2.158c0-1.44,1.32-0.76,1.52-3.359c0.199-2.84,1.32-9.239-2.439-9.239c-2.561,0-2.32,2.759-2.32,4.559
		V33.5z"/>
</g>
</svg>
