<?xml version="1.0" encoding="utf-8"?>
<!DOCTYPE svg PUBLIC "-//W3C//DTD SVG 1.1//EN" "http://www.w3.org/Graphics/SVG/1.1/DTD/svg11.dtd">
<svg version="1.1" id="Layer_1" xmlns="http://www.w3.org/2000/svg" xmlns:xlink="http://www.w3.org/1999/xlink" x="0px" y="0px"
	 viewBox="0 0 240 240" enable-background="new 0 0 240 240" xml:space="preserve">
<g>
	<path d="M240,120C240,54.184,186.738,0.572,121.053,0.005v1.814c0.182,1.148,0.274,2.288,0.274,3.397v75.405
		c0,12.036-9.792,21.829-21.828,21.829h-23.17c-4.271,0-7.747,3.135-7.747,6.987c0,3.853,3.475,6.988,7.747,6.988h77.835
		c11.235,0,20.378,8.801,20.378,19.62c0,10.818-9.143,19.62-20.378,19.62h-50.247c-5.071,0-9.197,4.125-9.197,9.196v72.471
		C102.988,239.104,111.469,240,120,240C186.168,240,240,186.169,240,120z"/>
	<path d="M0,120c0,52.022,33.363,97.735,82.089,113.894v-69.032c0-12.035,9.792-21.828,21.828-21.828h50.247
		c4.271,0,7.746-3.135,7.746-6.988s-3.475-6.988-7.746-6.988H76.329c-11.237,0-20.378-8.801-20.378-19.62
		s9.142-19.619,20.378-19.619h23.17c5.071,0,9.196-4.125,9.196-9.197V5.217c0-0.542-0.054-1.097-0.167-1.7l-0.107-0.575V0.559
		C47.111,6.377,0,57.629,0,120z"/>
</g>
</svg>
