<?xml version="1.0" encoding="utf-8"?>
<!DOCTYPE svg PUBLIC "-//W3C//DTD SVG 1.1//EN" "http://www.w3.org/Graphics/SVG/1.1/DTD/svg11.dtd">
<svg version="1.1" id="Layer_1" xmlns="http://www.w3.org/2000/svg" xmlns:xlink="http://www.w3.org/1999/xlink" x="0px" y="0px"
	 viewBox="0 0 240 240" xml:space="preserve">
<g>
	<path d="M78.063,107.532c-2.534,9.489-0.078,20.032,7.367,27.478c7.443,7.443,17.988,9.899,27.476,7.365
		c0.294-1.102,0.514-2.218,0.674-3.341l-32.176-32.176C80.28,107.019,79.164,107.238,78.063,107.532z"/>
	<path d="M105.543,78.124c-2.161-2.161-4.589-3.888-7.171-5.208l12.378,12.378C109.43,82.712,107.703,80.285,105.543,78.124z"/>
	<path d="M78.063,144.305c-2.533,9.49-0.08,20.033,7.366,27.479c7.443,7.443,17.988,9.9,27.478,7.364
		c2.533-9.488,0.077-20.033-7.366-27.477C98.096,144.227,87.554,141.771,78.063,144.305z"/>
	<path d="M161.938,107.532c-8.213-2.193-17.211-0.642-24.311,4.639l19.672,19.672C162.58,124.743,164.13,115.744,161.938,107.532z"
		/>
	<path d="M154.572,98.237c7.445-7.445,9.898-17.99,7.365-27.479c-9.489-2.534-20.033-0.079-27.478,7.367
		c-6.207,6.207-8.933,14.569-8.201,22.678l5.635,5.635C140.003,107.169,148.365,104.444,154.572,98.237z"/>
	<path d="M127.096,179.148c7.688,2.053,16.067,0.828,22.93-3.668l-19.263-19.263C126.267,163.08,125.043,171.461,127.096,179.148z"
		/>
	<path d="M116.937,207.699c-0.001,1.218,1.372,2.203,3.065,2.204c1.691,0,3.063-0.987,3.063-2.204v-59.179l-6.13-6.13
		L116.937,207.699z"/>
	<path d="M123.065,77.13c6.782-5.198,11.156-13.382,11.157-22.588c0-10.529-5.722-19.719-14.222-24.638
		c-8.501,4.918-14.223,14.11-14.222,24.639c0,9.205,4.374,17.39,11.156,22.588v14.349l6.13,6.13V77.13z"/>
	<path d="M35.147,35.147c-46.862,46.863-46.863,122.843,0,169.707c46.864,46.863,122.842,46.861,169.705-0.002
	s46.863-122.841,0-169.705C157.989-11.716,82.011-11.716,35.147,35.147z M49.288,190.711c-36.666-36.666-38.904-94.72-6.719-134
	L183.288,197.43C144.009,229.615,85.956,227.377,49.288,190.711z M197.431,183.289L56.71,42.569
	c39.281-32.184,97.334-29.945,134,6.721C227.378,85.957,229.614,144.008,197.431,183.289z"/>
</g>
</svg>
